<svg width="552" height="50" viewBox="0 0 552 50" fill="none" xmlns="http://www.w3.org/2000/svg">
<line y1="24.5" x2="200" y2="24.5" stroke="#34150F"/>
<path d="M287.465 30.7312L288.102 32.35C288.727 33.9395 289.985 35.1958 291.573 35.8229L293.192 36.4604L291.573 37.1C289.985 37.725 288.729 38.9833 288.102 40.5708L287.465 42.1895L286.825 40.5708C286.515 39.7855 286.047 39.0722 285.45 38.4752C284.853 37.8781 284.14 37.4101 283.354 37.1L281.735 36.4604L283.354 35.8229C284.14 35.5125 284.853 35.0441 285.45 34.4467C286.047 33.8493 286.515 33.1357 286.825 32.35L287.465 30.7312Z" fill="#85431E" stroke="#85431E" stroke-width="3" stroke-linejoin="round"/>
<path d="M271.021 8.2833C271.188 7.66663 272.063 7.66663 272.229 8.2833L272.55 9.47497C273.211 11.925 274.503 14.1587 276.297 15.953C278.091 17.7473 280.325 19.0393 282.775 19.7L283.967 20.0208C284.583 20.1875 284.583 21.0625 283.967 21.2291L282.775 21.55C280.325 22.2106 278.091 23.5026 276.297 25.2969C274.503 27.0912 273.211 29.325 272.55 31.775L272.229 32.9666C272.063 33.5833 271.188 33.5833 271.021 32.9666L270.7 31.775C270.039 29.325 268.747 27.0912 266.953 25.2969C265.159 23.5026 262.925 22.2106 260.475 21.55L259.283 21.2291C258.667 21.0625 258.667 20.1875 259.283 20.0208L260.475 19.7C262.925 19.0393 265.159 17.7473 266.953 15.953C268.747 14.1587 270.039 11.925 270.7 9.47497L271.021 8.2833Z" stroke="#85431E" stroke-width="3" stroke-linejoin="round"/>
<line x1="352" y1="24.5" x2="552" y2="24.5" stroke="#34150F"/>
</svg>
