<svg width="283" height="46" viewBox="0 0 283 46" fill="none" xmlns="http://www.w3.org/2000/svg">
<path d="M33.1935 20.3444H42.8898V21.891L41.1052 24.6274V41.2241H40.0344C39.2611 41.2241 38.5473 41.4621 37.8929 41.819C33.3719 44.6149 28.3156 45.9831 22.4859 45.9831C17.7865 45.9831 13.6819 44.9718 10.2912 42.9493C6.90043 40.9267 4.28303 38.1308 2.55792 34.6806C0.83281 31.2899 -1.76622e-06 27.4233 -1.76622e-06 23.3187C-1.76622e-06 19.1546 0.83281 15.3475 2.55792 11.9568C4.28303 8.50656 6.90043 5.7107 10.2912 3.68815C13.6819 1.66561 17.7865 0.65434 22.4859 0.65434C24.5679 0.65434 26.5905 0.832801 28.494 1.18972C29.9812 1.42767 31.4089 1.84407 32.7176 2.31996C33.253 2.49842 33.6694 2.67688 34.1453 2.85534C35.7514 3.50969 37.536 3.80713 39.3206 3.62867H39.618L40.9862 4.34251L37.298 11.2429H35.5134L35.1565 10.5291C35.097 10.3506 34.9186 10.1127 34.7401 9.87475C34.2642 9.2204 33.6694 8.56605 32.896 7.97118C31.7063 7.0194 30.1597 6.18659 28.2561 5.47275C27.8992 5.35377 27.4828 5.2348 27.0664 5.11583C25.4602 4.69942 23.6756 4.46148 21.7721 4.46148C18.5003 4.46148 15.7044 5.29429 13.3845 6.95991C11.0645 8.62553 9.27989 10.886 8.09016 13.6819C6.84095 16.5967 6.24608 19.809 6.24608 23.3187C6.24608 26.8284 6.84095 30.0407 8.09016 32.896C9.27989 35.7514 11.0645 38.0119 13.3845 39.6775C15.7044 41.3431 18.5003 42.1759 21.7721 42.1759C24.211 42.1759 26.3525 41.819 28.2561 41.1647C30.1597 40.4508 31.7063 39.618 32.896 38.6662C33.7883 37.8929 34.5022 37.1791 34.9781 36.4652V24.6274L33.1935 21.891V20.3444ZM114.786 40.5698L116.69 43.4846V45.0313H107.172V43.4846L108.481 41.3431L104.852 32.7176C99.2007 34.2047 93.0141 33.8478 86.4111 31.7063L85.3999 31.4089L80.8789 41.7L79.3917 45.0313L48.7562 44.9718V43.4251L50.4813 40.6888V5.82967L48.7562 3.0338V1.48715H56.2515H58.393V3.0338L56.6084 5.82967V40.9862H76.0605C76.1794 40.9862 76.3579 40.9862 76.5364 40.9267C76.9528 40.8077 77.3097 40.3913 77.6071 39.9154C77.6071 39.7965 77.6666 39.737 77.6666 39.6775L81.9496 30.0407C81.7117 29.9217 81.4737 29.8622 81.2358 29.7432C74.6923 26.8284 68.3272 25.2818 62.1406 25.1628L60.475 25.1033L62.2596 21.4151H62.9734C69.517 21.5936 76.3579 23.2592 83.3178 26.3525C83.3773 26.412 83.4963 26.4715 83.5558 26.4715L95.3341 -1.02142e-05H97.7136L114.786 40.5698ZM95.1556 9.45834L87.006 27.8397L87.3034 27.9587C94.2039 30.3381 99.7361 30.1597 103.424 29.3863L95.1556 9.45834ZM167.954 40.7483L169.738 43.4846V45.0313H160.042V43.4846L161.827 40.7483V11.6593L144.397 43.9605L126.73 11.1835V40.9862L128.336 43.5441V44.9718L127.265 45.0313H121.257V43.6631L121.376 43.3062L122.922 40.9267L122.863 5.59172L121.257 3.0338V1.60613L122.328 1.54664L127.622 1.48715L128.395 2.91483L145.23 34.1452L162.897 1.48715H166.645L167.954 1.07075V1.48715H169.738V3.0338L167.954 5.82967V40.7483ZM193.507 20.1064C201.478 22.7833 207.665 25.4602 207.844 33.253C207.903 36.7627 206.892 39.618 204.869 41.7595C202.43 44.258 198.623 45.5667 193.924 45.5667C189.462 45.5667 185.655 44.5554 182.621 42.6518C181.372 41.8785 179.766 41.819 178.517 42.5923L178.219 42.7708H176.732V32.8365L178.398 33.0745L178.755 33.3124L178.933 33.5504C180.658 35.8704 182.443 37.655 184.406 39.0231C187.202 40.9267 190.236 41.819 193.745 41.819C196.72 41.819 199.337 40.8672 200.943 39.1421C202.073 37.8929 202.609 36.2868 202.43 34.4427C202.073 30.9925 200.527 29.3863 191.187 26.1146C184.822 23.7946 176.97 20.9392 176.97 12.7896C176.97 7.67375 180.539 1.60613 190.592 1.60613C193.388 1.60613 195.47 2.26048 196.958 2.67688L197.076 2.73637C198.564 3.21226 200.229 3.09329 201.538 2.43894L202.609 1.90356H204.096V11.2429H202.549L201.835 10.767C201.3 10.1722 200.765 9.6368 200.229 9.16091C199.159 8.20913 198.088 7.4358 196.898 6.84094L196.541 6.66248C194.638 5.77018 192.556 5.35377 190.355 5.35377C186.428 5.35377 182.264 7.37632 182.264 11.8973C182.264 16.3588 187.38 18.0839 193.329 20.0469L193.507 20.1064ZM241.484 1.48715H248.92V3.09329L246.005 6.48402L232.502 27.4233V40.6888L234.286 43.4846V45.0313H224.649V43.4846L226.375 40.6888V27.9587L212.038 5.65121L209.897 3.15277V1.48715L219.712 1.54664V3.15277L218.522 4.46148L219.058 5.2348L230.598 23.3782L242.614 4.69942L241.484 3.0338V1.48715ZM268.038 20.1064C276.01 22.7833 282.196 25.4602 282.375 33.253C282.434 36.7627 281.423 39.618 279.4 41.7595C276.961 44.258 273.154 45.5667 268.455 45.5667C263.993 45.5667 260.186 44.5554 257.152 42.6518C255.903 41.8785 254.297 41.819 253.048 42.5923L252.75 42.7708H251.263V32.8365L252.929 33.0745L253.286 33.3124L253.464 33.5504C255.189 35.8704 256.974 37.655 258.937 39.0231C261.733 40.9267 264.767 41.819 268.276 41.819C271.251 41.819 273.868 40.8672 275.474 39.1421C276.604 37.8929 277.14 36.2868 276.961 34.4427C276.604 30.9925 275.058 29.3863 265.718 26.1146C259.353 23.7946 251.501 20.9392 251.501 12.7896C251.501 7.67375 255.07 1.60613 265.123 1.60613C267.919 1.60613 270.001 2.26048 271.489 2.67688L271.608 2.73637C273.095 3.21226 274.76 3.09329 276.069 2.43894L277.14 1.90356H278.627V11.2429H277.08L276.366 10.767C275.831 10.1722 275.296 9.6368 274.76 9.16091C273.69 8.20913 272.619 7.4358 271.429 6.84094L271.072 6.66248C269.169 5.77018 267.087 5.35377 264.886 5.35377C260.959 5.35377 256.795 7.37632 256.795 11.8973C256.795 16.3588 261.911 18.0839 267.86 20.0469L268.038 20.1064Z" fill="#F2ECEC"/>
</svg>
